# xmcd
#
# Track frame offsets: 
#        150
#        14798
#        26417
#        44897
#        59009
#        77752
#        102757
#        125563
#        138068
#        149676
#        163078
#        176139
#        194459
#
# Disc length: 2922 seconds
#
# Revision: 0
# Processed by: cddbd v1.5.2PL0 Copyright (c) Steve Scherf et al.
# Submitted via: ExactAudioCopyFreeDBPlugin 1.0
#
DISCID=c50b680d
DTITLE=Various Artist - Pink and Mr Floyd: Tribute to Pink Anderson and
DTITLE=Flyd Council
DYEAR=1900
DGENRE=
TTITLE0=Lightnin' Wells - Chicken
TTITLE1=Lightnin' Wells - I'm Grieving and I'm Worrying
TTITLE2=Bullfrog Willard McGhee - Runaway Man
TTITLE3=Tad Walters - Weepin' Willow
TTITLE4=Lightnin' Wells - Boots and Shoes
TTITLE5=Bullfrog Willard McGhee - Oozin' You Off My Mind
TTITLE6=Bullfrog Willard McGhee - Workin' Man Blues
TTITLE7=Lightnin' Wells - Lookin' For My Baby
TTITLE8=Boo Hanks - Red River Blues
TTITLE9=Lightnin' Wells - I Don't Want No Hingry Woman
TTITLE10=Tad Walters - Bad Bad Whiskey
TTITLE11=Bullfrog Willard McGhee - Poor and Ain't Got a Dime
TTITLE12=Tand Walters and Bullfrog Willard McGhee - See That My Grave is
TTITLE12=Kept Clean
EXTD=
EXTT0=
EXTT1=
EXTT2=
EXTT3=
EXTT4=
EXTT5=
EXTT6=
EXTT7=
EXTT8=
EXTT9=
EXTT10=
EXTT11=
EXTT12=
PLAYORDER=
